<svg width="40" height="29" viewBox="0 0 40 29" fill="none" xmlns="http://www.w3.org/2000/svg">
<g clip-path="url(#clip0_771_2252)">
<path d="M0 -1H40V29H0V-1Z" fill="#183F96"/>
<path d="M4.6875 -1L19.9375 10.3125L35.125 -1H40V2.875L25 14.0625L40 25.1875V29H35L20 17.8125L5.0625 29H0V25.25L14.9375 14.125L0 3V-1H4.6875Z" fill="white"/>
<path d="M26.5 16.5625L40 26.5V29L23.0625 16.5625H26.5ZM15 17.8125L15.375 20L3.375 29H0L15 17.8125ZM40 -1V-0.8125L24.4375 10.9375L24.5625 8.1875L36.875 -1H40ZM0 -1L14.9375 10H11.1875L0 1.625V-1Z" fill="#C8102E"/>
<path d="M15.0625 -1V29H25.0625V-1H15.0625ZM0 9V19H40V9H0Z" fill="white"/>
<path d="M0 11.0625V17.0625H40V11.0625H0ZM17.0625 -1V29H23.0625V-1H17.0625Z" fill="#C8102E"/>
</g>
<defs>
<clipPath id="clip0_771_2252">
<rect width="40" height="30" fill="white" transform="translate(0 -1)"/>
</clipPath>
</defs>
</svg>
