<svg width="29" height="29" viewBox="0 0 29 29" fill="none" xmlns="http://www.w3.org/2000/svg">
<path fill-rule="evenodd" clip-rule="evenodd" d="M14.5 22C18.6421 22 22 18.6421 22 14.5C22 10.3579 18.6421 7 14.5 7C10.3579 7 7 10.3579 7 14.5C7 18.6421 10.3579 22 14.5 22ZM14.5 29C22.5081 29 29 22.5081 29 14.5C29 6.49187 22.5081 0 14.5 0C6.49187 0 0 6.49187 0 14.5C0 22.5081 6.49187 29 14.5 29Z" fill="#F69235"/>
<path fill-rule="evenodd" clip-rule="evenodd" d="M14.5002 27.4181C21.6347 27.4181 27.4184 21.6345 27.4184 14.5C27.4184 7.36545 21.6347 1.58179 14.5002 1.58179C7.3657 1.58179 1.58203 7.36545 1.58203 14.5C1.58203 21.6345 7.3657 27.4181 14.5002 27.4181ZM14.1276 12.6545C13.023 12.6545 12.1276 13.5499 12.1276 14.6545V14.8727C12.1276 15.9773 13.023 16.8727 14.1276 16.8727H15.4003C16.5049 16.8727 17.4003 15.9773 17.4003 14.8727V14.6545C17.4003 13.5499 16.5049 12.6545 15.4003 12.6545H14.1276Z" fill="#FFAE36"/>
<path fill-rule="evenodd" clip-rule="evenodd" d="M14.5002 24.4181C19.9779 24.4181 24.4184 19.9776 24.4184 14.5C24.4184 9.02231 19.9779 4.58179 14.5002 4.58179C9.02255 4.58179 4.58203 9.02231 4.58203 14.5C4.58203 19.9776 9.02255 24.4181 14.5002 24.4181ZM9.12756 14.6545C9.12756 11.8931 11.3661 9.65451 14.1276 9.65451H15.4003C18.1617 9.65451 20.4003 11.8931 20.4003 14.6545V14.8727C20.4003 17.6341 18.1617 19.8727 15.4003 19.8727H14.1276C11.3661 19.8727 9.12756 17.6341 9.12756 14.8727V14.6545ZM27.4184 14.5C27.4184 21.6345 21.6347 27.4181 14.5002 27.4181C7.3657 27.4181 1.58203 21.6345 1.58203 14.5C1.58203 7.36545 7.3657 1.58179 14.5002 1.58179C21.6347 1.58179 27.4184 7.36545 27.4184 14.5ZM12.1276 14.6545C12.1276 13.5499 13.023 12.6545 14.1276 12.6545H15.4003C16.5049 12.6545 17.4003 13.5499 17.4003 14.6545V14.8727C17.4003 15.9773 16.5049 16.8727 15.4003 16.8727H14.1276C13.023 16.8727 12.1276 15.9773 12.1276 14.8727V14.6545Z" fill="#F69235"/>
<path fill-rule="evenodd" clip-rule="evenodd" d="M24.247 9.14873C22.2001 5.2822 17.6297 3.46341 14.3061 3.618C13.4785 3.65649 12.7765 3.01684 12.738 2.18931C12.6995 1.36178 13.3391 0.659728 14.1667 0.621238C18.4006 0.424312 24.1999 2.64794 26.8984 7.74506C27.286 8.47722 27.0067 9.38497 26.2746 9.77258C25.5424 10.1602 24.6347 9.88088 24.247 9.14873Z" fill="#F8FBFF" fill-opacity="0.2"/>
<path fill-rule="evenodd" clip-rule="evenodd" d="M16.2054 10.7216C15.6021 10.4381 14.9252 10.3314 14.4061 10.3566C12.4753 10.4503 10.8342 8.96111 10.7405 7.03039C10.6468 5.09967 12.136 3.45855 14.0667 3.36485C17.039 3.2206 21.5325 4.45611 23.6849 8.6982C24.5595 10.422 23.8711 12.5284 22.1473 13.4031C20.4235 14.2777 18.3171 13.5893 17.4425 11.8655C17.1903 11.3686 16.777 10.9903 16.2054 10.7216Z" fill="#F8FBFF" fill-opacity="0.2"/>
<path fill-rule="evenodd" clip-rule="evenodd" d="M16.7327 9.66855C16.1295 9.38497 15.4526 9.27832 14.9334 9.30352C13.0027 9.39722 11.3616 7.90801 11.2679 5.97729C11.1742 4.04656 12.6634 2.40545 14.5941 2.31175C17.5664 2.1675 22.0598 3.40301 24.2122 7.6451C25.0869 9.3689 24.3985 11.4753 22.6747 12.35C20.9509 13.2246 18.8444 12.5362 17.9698 10.8124C17.7177 10.3155 17.3043 9.93724 16.7327 9.66855Z" fill="#F8FBFF" fill-opacity="0.2"/>
<path fill-rule="evenodd" clip-rule="evenodd" d="M13.9595 19.8985C12.351 20.088 10.8123 19.008 10.0462 17.725C9.33839 16.5396 7.80356 16.1524 6.61809 16.8602C5.43263 17.5681 5.04544 19.1029 5.75328 20.2883C7.15227 22.6313 10.3394 25.3595 14.5443 24.8642C15.9156 24.7027 16.8963 23.4602 16.7348 22.089C16.5733 20.7177 15.3307 19.737 13.9595 19.8985Z" fill="#F8FBFF" fill-opacity="0.2"/>
</svg>
