<svg width="61" height="60" viewBox="0 0 61 60" fill="none" xmlns="http://www.w3.org/2000/svg">
<rect x="1" y="1" width="59" height="58" rx="29" stroke="#8445BD" stroke-width="2"/>
<path d="M37.1111 44.5351C36.6117 44.5351 36.1467 44.4312 35.8022 44.2753C34.5794 43.6343 33.7183 42.7507 32.8572 40.1521C31.9789 37.4495 30.3256 36.1848 28.7411 34.9548C27.3806 33.898 25.9683 32.8065 24.7456 30.5717C23.8328 28.9086 23.3333 27.0895 23.3333 25.4783C23.3333 20.6275 27.1222 16.8162 31.9444 16.8162C36.7667 16.8162 40.5556 20.6275 40.5556 25.4783H44C44 18.6699 38.7128 13.3513 31.9444 13.3513C25.1761 13.3513 19.8889 18.6699 19.8889 25.4783C19.8889 27.6612 20.5433 30.0693 21.7317 32.2348C23.2989 35.0934 25.1417 36.5313 26.64 37.692C28.035 38.7661 29.0339 39.5457 29.585 41.2435C30.6183 44.3965 31.9444 46.1636 34.2867 47.3936C35.165 47.7921 36.1294 48 37.1111 48C40.9172 48 44 44.8989 44 41.0703H40.5556C40.5556 42.9759 39.0056 44.5351 37.1111 44.5351ZM20.9911 14.4601L18.5456 12C15.1183 15.4475 13 20.2117 13 25.4783C13 30.7449 15.1183 35.5091 18.5456 38.9567L20.9739 36.514C18.1839 33.6901 16.4444 29.7921 16.4444 25.4783C16.4444 21.1646 18.1839 17.2666 20.9911 14.4601ZM27.6389 25.4783C27.6389 27.8691 29.5678 29.8094 31.9444 29.8094C34.3211 29.8094 36.25 27.8691 36.25 25.4783C36.25 23.0876 34.3211 21.1473 31.9444 21.1473C29.5678 21.1473 27.6389 23.0876 27.6389 25.4783Z" fill="#8445BD"/>
</svg>
