<svg width="27" height="32" viewBox="0 0 27 32" fill="none" xmlns="http://www.w3.org/2000/svg">
<path d="M21 28.9201C20.565 28.9201 20.16 28.8277 19.86 28.6891C18.795 28.1193 18.045 27.334 17.295 25.0241C16.53 22.6217 15.09 21.4976 13.71 20.4042C12.525 19.4649 11.295 18.4947 10.23 16.5082C9.435 15.0298 9 13.4129 9 11.9807C9 7.66891 12.3 4.28104 16.5 4.28104C20.7 4.28104 24 7.66891 24 11.9807H27C27 5.92878 22.395 1.20115 16.5 1.20115C10.605 1.20115 6 5.92878 6 11.9807C6 13.9211 6.57 16.0616 7.605 17.9865C8.97 20.5274 10.575 21.8056 11.88 22.8373C13.095 23.7921 13.965 24.4851 14.445 25.9942C15.345 28.7969 16.5 30.3677 18.54 31.461C19.305 31.8152 20.145 32 21 32C24.315 32 27 29.2435 27 25.8402H24C24 27.5342 22.65 28.9201 21 28.9201ZM6.96 2.18672L4.83 0C1.845 3.06448 0 7.29933 0 11.9807C0 16.6622 1.845 20.897 4.83 23.9615L6.945 21.7902C4.515 19.2801 3 15.8152 3 11.9807C3 8.14629 4.515 4.68142 6.96 2.18672ZM12.75 11.9807C12.75 14.1059 14.43 15.8306 16.5 15.8306C18.57 15.8306 20.25 14.1059 20.25 11.9807C20.25 9.85563 18.57 8.13089 16.5 8.13089C14.43 8.13089 12.75 9.85563 12.75 11.9807Z" fill="#393939"/>
</svg>
