<svg width="29" height="19" viewBox="0 0 29 19" fill="none" xmlns="http://www.w3.org/2000/svg">
<path d="M3.07666 2.39853L8.68861 7.25577L13.6885 1.20018C13.8285 1.03088 14.0055 0.894843 14.2064 0.802183C14.4072 0.709523 14.6268 0.662632 14.8486 0.665003C15.0705 0.667373 15.2889 0.718944 15.4877 0.815874C15.6865 0.912804 15.8604 1.0526 15.9967 1.22484L20.7679 7.25432L26.5613 2.32744C26.7888 2.13435 27.0708 2.01423 27.3696 1.98314C27.6685 1.95205 27.9698 2.01149 28.2333 2.15349C28.4969 2.29549 28.71 2.51328 28.8443 2.77771C28.9785 3.04215 29.0275 3.34061 28.9845 3.63315L26.7722 18.6445H2.88935L0.643102 3.70134C0.598482 3.40717 0.646855 3.10662 0.781668 2.84039C0.916481 2.57417 1.13122 2.35513 1.3968 2.21296C1.66238 2.07078 1.96597 2.01233 2.26644 2.04552C2.56692 2.07871 2.84976 2.20195 3.07666 2.39853Z" fill="#F69235"/>
<path fill-rule="evenodd" clip-rule="evenodd" d="M14.7086 4.02768L14.6814 3.99575C14.5693 3.86371 14.4261 3.75655 14.2625 3.68225C14.0989 3.60794 13.9191 3.56841 13.7365 3.56659C13.5539 3.56478 13.3732 3.60072 13.2079 3.67175C13.0426 3.74278 12.8969 3.84707 12.7816 3.97684L8.66646 8.61885L4.04751 4.89545C3.86075 4.74476 3.62795 4.6503 3.38064 4.62485C3.13334 4.59941 2.88347 4.64421 2.66488 4.7532C2.44629 4.86219 2.26955 5.0301 2.15859 5.23417C2.04763 5.43825 2.00782 5.66864 2.04454 5.89414L3.89334 17.349H14.7086V4.02768Z" fill="#F8FBFF" fill-opacity="0.2"/>
<path fill-rule="evenodd" clip-rule="evenodd" d="M13.6668 4.93622C14.0244 5.23503 14.072 5.76713 13.7732 6.12469L10.7126 9.78711C10.4137 10.1447 9.88165 10.1923 9.52408 9.89349C9.16652 9.59468 9.11889 9.06258 9.4177 8.70501L12.4783 5.0426C12.7771 4.68503 13.3092 4.6374 13.6668 4.93622Z" fill="#FFF8F8" fill-opacity="0.3"/>
<path fill-rule="evenodd" clip-rule="evenodd" d="M4.02798 6.58404C4.48682 6.5027 4.92471 6.80872 5.00605 7.26755L5.73867 11.4002C5.82001 11.859 5.514 12.2969 5.05517 12.3782C4.59634 12.4596 4.15844 12.1536 4.0771 11.6947L3.34448 7.56211C3.26314 7.10328 3.56915 6.66538 4.02798 6.58404Z" fill="#FFF8F8" fill-opacity="0.3"/>
</svg>
