<svg width="22" height="29" viewBox="0 0 22 29" fill="none" xmlns="http://www.w3.org/2000/svg">
<path fill-rule="evenodd" clip-rule="evenodd" d="M6.19617 5.50861C6.19617 2.96249 8.22553 0.898438 10.7289 0.898438C13.2323 0.898438 15.2615 2.96249 15.2615 5.50861V11.6555C15.2615 14.2016 13.2323 16.2657 10.7289 16.2657C8.22553 16.2657 6.19617 14.2016 6.19617 11.6555V5.50861ZM12.2398 22.3036C17.3652 21.558 21.3051 17.0748 21.3051 11.6555C21.3051 10.8068 20.6287 10.1188 19.7942 10.1188C18.9598 10.1188 18.2833 10.8068 18.2833 11.6555C18.2833 15.899 14.901 19.3391 10.7289 19.3391C6.55664 19.3391 3.17438 15.899 3.17438 11.6555C3.17438 10.8068 2.49792 10.1188 1.66348 10.1188C0.829046 10.1188 0.152588 10.8068 0.152588 11.6555C0.152588 17.0748 4.09257 21.558 9.21796 22.3036V25.486H4.68528C3.85084 25.486 3.17438 26.174 3.17438 27.0227C3.17438 27.8715 3.85084 28.5595 4.68528 28.5595H16.7724C17.6069 28.5595 18.2833 27.8715 18.2833 27.0227C18.2833 26.174 17.6069 25.486 16.7724 25.486H12.2398V22.3036Z" fill="#88BD45"/>
</svg>
