<svg width="61" height="60" viewBox="0 0 61 60" fill="none" xmlns="http://www.w3.org/2000/svg">
<rect x="2.13477" y="2" width="56.7317" height="56" rx="28" stroke="#8445BD" stroke-width="4"/>
<path fill-rule="evenodd" clip-rule="evenodd" d="M31.5271 41.632C32.2129 42.3178 33.3248 42.3178 34.0106 41.632L44.5472 31.0955C45.233 30.4097 45.233 29.2978 44.5472 28.612L34.0106 18.0754C33.3248 17.3896 32.2129 17.3896 31.5271 18.0754C30.8413 18.7612 30.8413 19.8731 31.5271 20.5589L39.0658 28.0976H18.7201C17.7502 28.0976 16.964 28.8839 16.964 29.8537C16.964 30.8236 17.7502 31.6098 18.7201 31.6098H39.0658L31.5271 39.1486C30.8413 39.8343 30.8413 40.9463 31.5271 41.632Z" fill="#8445BD"/>
</svg>
