<svg width="34" height="31" viewBox="0 0 34 31" fill="none" xmlns="http://www.w3.org/2000/svg">
<path d="M22.6151 16.6354C24.479 16.6354 25.99 18.1616 25.99 20.0442L25.9882 21.745C26.2197 25.9186 23.0371 28 17.1351 28C11.2523 28 8 25.9458 8 21.8045V20.0442C8 18.1616 9.51099 16.6354 11.3749 16.6354H22.6151ZM22.6151 18.9079H11.3749C10.7536 18.9079 10.2499 19.4167 10.2499 20.0442V21.8045C10.2499 24.4089 12.3377 25.7274 17.1351 25.7274C21.9135 25.7274 23.8841 24.4387 23.74 21.8084V20.0442C23.74 19.4167 23.2364 18.9079 22.6151 18.9079ZM16.9997 3C20.1067 3 22.6255 5.54407 22.6255 8.68231C22.6255 11.8206 20.1067 14.3647 16.9997 14.3647C13.8927 14.3647 11.374 11.8206 11.374 8.68231C11.374 5.54407 13.8927 3 16.9997 3ZM16.9997 5.27256C15.1353 5.27256 13.6239 6.79916 13.6239 8.68231C13.6239 10.5655 15.1353 12.0921 16.9997 12.0921C18.8641 12.0921 20.3755 10.5655 20.3755 8.68231C20.3755 6.79916 18.8641 5.27256 16.9997 5.27256Z" fill="black"/>
</svg>
