<svg width="142" height="142" viewBox="0 0 142 142" fill="none" xmlns="http://www.w3.org/2000/svg">
<rect width="142" height="142" rx="24" fill="#8445BD"/>
<path fill-rule="evenodd" clip-rule="evenodd" d="M60 49.5C60 43.701 64.701 39 70.5 39C76.2992 39 81 43.701 81 49.5V63.5C81 69.299 76.2992 74 70.5 74C64.701 74 60 69.299 60 63.5V49.5ZM74 87.7519C85.873 86.0537 95 75.8427 95 63.5C95 61.567 93.433 60 91.5 60C89.567 60 88 61.567 88 63.5C88 73.1649 80.1649 81 70.5 81C60.835 81 53 73.1649 53 63.5C53 61.567 51.433 60 49.5 60C47.567 60 46 61.567 46 63.5C46 75.8427 55.127 86.0537 67 87.7519V95H56.5C54.567 95 53 96.567 53 98.5C53 100.433 54.567 102 56.5 102H84.5C86.433 102 88 100.433 88 98.5C88 96.567 86.433 95 84.5 95H74V87.7519Z" fill="white"/>
</svg>
