<svg width="168" height="168" viewBox="0 0 168 168" fill="none" xmlns="http://www.w3.org/2000/svg">
<rect x="2" y="2" width="164" height="164" rx="38" fill="#F3F1FF" stroke="#4566BD" stroke-width="4"/>
<path fill-rule="evenodd" clip-rule="evenodd" d="M70.9865 58.5633C70.9865 51.7025 76.5483 46.1407 83.409 46.1407C90.27 46.1407 95.8315 51.7025 95.8315 58.5633V75.1267C95.8315 81.9874 90.27 87.5492 83.409 87.5492C76.5483 87.5492 70.9865 81.9874 70.9865 75.1267V58.5633ZM87.5499 103.819C101.597 101.81 112.395 89.7294 112.395 75.1267C112.395 72.8398 110.541 70.9858 108.254 70.9858C105.967 70.9858 104.113 72.8398 104.113 75.1267C104.113 86.5612 94.8435 95.8309 83.409 95.8309C71.9744 95.8309 62.7048 86.5612 62.7048 75.1267C62.7048 72.8398 60.8508 70.9858 58.5639 70.9858C56.277 70.9858 54.4231 72.8398 54.4231 75.1267C54.4231 89.7294 65.2212 101.81 79.2682 103.819V112.394H66.8456C64.5587 112.394 62.7048 114.248 62.7048 116.535C62.7048 118.822 64.5587 120.676 66.8456 120.676H99.9724C102.259 120.676 104.113 118.822 104.113 116.535C104.113 114.248 102.259 112.394 99.9724 112.394H87.5499V103.819Z" fill="#4566BD"/>
</svg>
