<svg width="64" height="64" viewBox="0 0 64 64" fill="none" xmlns="http://www.w3.org/2000/svg">
<rect width="64" height="64" rx="32" fill="#88BD45"/>
<path fill-rule="evenodd" clip-rule="evenodd" d="M27.1962 22.5086C27.1962 19.9625 29.2255 17.8984 31.7289 17.8984C34.2323 17.8984 36.2615 19.9625 36.2615 22.5086V28.6555C36.2615 31.2016 34.2323 33.2657 31.7289 33.2657C29.2255 33.2657 27.1962 31.2016 27.1962 28.6555V22.5086ZM33.2398 39.3036C38.3652 38.558 42.3051 34.0748 42.3051 28.6555C42.3051 27.8068 41.6287 27.1188 40.7942 27.1188C39.9598 27.1188 39.2833 27.8068 39.2833 28.6555C39.2833 32.899 35.901 36.3391 31.7289 36.3391C27.5566 36.3391 24.1744 32.899 24.1744 28.6555C24.1744 27.8068 23.4979 27.1188 22.6635 27.1188C21.829 27.1188 21.1526 27.8068 21.1526 28.6555C21.1526 34.0748 25.0926 38.558 30.218 39.3036V42.486H25.6853C24.8508 42.486 24.1744 43.174 24.1744 44.0227C24.1744 44.8715 24.8508 45.5595 25.6853 45.5595H37.7724C38.6069 45.5595 39.2833 44.8715 39.2833 44.0227C39.2833 43.174 38.6069 42.486 37.7724 42.486H33.2398V39.3036Z" fill="white"/>
</svg>
