<svg width="24" height="24" viewBox="0 0 24 24" fill="none" xmlns="http://www.w3.org/2000/svg">
<path fill-rule="evenodd" clip-rule="evenodd" d="M22.9958 11.9981V3.7497C22.9958 2.23122 21.7649 1.00024 20.2464 1.00024H11.998C10.4795 1.00024 9.24854 2.23122 9.24854 3.7497V11.9981C9.24854 13.5166 10.4795 14.7475 11.998 14.7475H20.2464C21.7649 14.7475 22.9958 13.5166 22.9958 11.9981Z" stroke="black" stroke-width="1.8" stroke-linecap="round" stroke-linejoin="round"/>
<path d="M6.49894 9.25342H3.74946C2.23098 9.25342 1 10.4844 1 12.0029V20.2505C1 21.769 2.23098 22.9999 3.74946 22.9999H3.75421L12.0026 22.9857C13.5192 22.9831 14.7473 21.7529 14.7473 20.2362V17.4971" stroke="black" stroke-width="1.8" stroke-linecap="round" stroke-linejoin="round"/>
<path d="M7.87444 14.7517H3.74951" stroke="black" stroke-width="1.8" stroke-linecap="round" stroke-linejoin="round"/>
<path d="M9.93692 16.8096C9.4786 17.2679 9.02027 17.7262 8.56195 18.1845C8.10362 18.6429 6.95781 19.3304 5.12451 20.247" stroke="black" stroke-width="1.8" stroke-linecap="round" stroke-linejoin="round"/>
<path d="M5.12451 14.752C5.58276 16.3551 6.27012 17.5 7.18661 18.1866C8.10309 18.8732 9.2487 19.5599 10.6234 20.2465" stroke="black" stroke-width="1.8" stroke-linecap="round" stroke-linejoin="round"/>
<path d="M16.1222 3.74976L11.998 11.9981" stroke="black" stroke-width="1.8" stroke-linecap="round" stroke-linejoin="round"/>
<path d="M16.1221 3.74976L20.2463 11.9981" stroke="black" stroke-width="1.8" stroke-linecap="round" stroke-linejoin="round"/>
<path d="M18.8716 9.24854H13.3727" stroke="black" stroke-width="1.8" stroke-linecap="round" stroke-linejoin="round"/>
</svg>
