<svg width="49" height="49" viewBox="0 0 49 49" fill="none" xmlns="http://www.w3.org/2000/svg">
<path d="M48.9999 22.0456C49.0068 20.3157 48.5579 18.6146 47.6988 17.1147C46.8397 15.6148 45.6008 14.3693 44.1077 13.5043C44.1445 13.0797 44.1445 12.6527 44.1077 12.228C44.1077 10.2752 43.3345 8.40236 41.9583 7.0215C40.5821 5.64063 38.7156 4.86487 36.7693 4.86487H36.329C35.9217 3.73171 35.2435 2.71614 34.3539 1.9072C33.4643 1.09827 32.3905 0.520686 31.2266 0.225103C30.0628 -0.0704789 28.8444 -0.0750331 27.6784 0.211841C26.5124 0.498715 25.4343 1.06826 24.5388 1.87052C23.6432 1.06826 22.5651 0.498715 21.3991 0.211841C20.2331 -0.0750331 19.0147 -0.0704789 17.8509 0.225103C16.687 0.520686 15.6132 1.09827 14.7236 1.9072C13.834 2.71614 13.1558 3.73171 12.7485 4.86487H12.3082C10.3619 4.86487 8.49539 5.64063 7.11918 7.0215C5.74298 8.40236 4.96983 10.2752 4.96983 12.228C4.93301 12.6527 4.93301 13.0797 4.96983 13.5043C3.58156 14.2917 2.40613 15.4076 1.54585 16.7549C0.685579 18.1021 0.166534 19.64 0.0339022 21.2345C-0.0987292 22.8291 0.159073 24.432 0.784867 25.9037C1.41066 27.3754 2.38548 28.6714 3.62447 29.6788C2.8228 31.179 2.4237 32.8627 2.46634 34.5645C2.50898 36.2663 2.99188 37.9277 3.86767 39.3856C4.74345 40.8436 5.982 42.048 7.46176 42.8807C8.94152 43.7134 10.6116 44.1456 12.3082 44.1351H12.7485C13.1558 45.2683 13.834 46.2839 14.7236 47.0928C15.6132 47.9017 16.687 48.4793 17.8509 48.7749C19.0147 49.0705 20.2331 49.075 21.3991 48.7882C22.5651 48.5013 23.6432 47.9317 24.5388 47.1295C25.4343 47.9317 26.5124 48.5013 27.6784 48.7882C28.8444 49.075 30.0628 49.0705 31.2266 48.7749C32.3905 48.4793 33.4643 47.9017 34.3539 47.0928C35.2435 46.2839 35.9217 45.2683 36.329 44.1351H36.7693C38.4555 44.1244 40.1103 43.6767 41.5733 42.8353C43.0362 41.9939 44.2576 40.7875 45.119 39.333C45.9804 37.8785 46.4525 36.2253 46.4896 34.5338C46.5267 32.8423 46.1275 31.1699 45.3308 29.6788C46.4717 28.7622 47.3935 27.6008 48.0285 26.2799C48.6634 24.959 48.9954 23.5121 48.9999 22.0456ZM22.0926 16.0324C21.5599 15.7266 21.0037 15.464 20.4293 15.2469C19.813 15.0386 19.1394 15.0845 18.5568 15.3745C17.9742 15.6645 17.5303 16.1748 17.3227 16.7932C17.1151 17.4116 17.1609 18.0874 17.4499 18.672C17.7389 19.2566 18.2475 19.702 18.8638 19.9103C19.8054 20.2519 20.6199 20.8751 21.1973 21.6958C21.7747 22.5166 22.0872 23.4954 22.0926 24.5V28.3043C21.5599 27.9986 21.0037 27.7359 20.4293 27.5189C19.813 27.3106 19.1394 27.3565 18.5568 27.6465C17.9742 27.9364 17.5303 28.4468 17.3227 29.0652C17.1151 29.6836 17.1609 30.3594 17.4499 30.9439C17.7389 31.5285 18.2475 31.9739 18.8638 32.1822C19.8054 32.5238 20.6199 33.147 21.1973 33.9678C21.7747 34.7886 22.0872 35.7673 22.0926 36.772V41.6807C22.0926 42.3317 21.8349 42.956 21.3762 43.4163C20.9175 43.8765 20.2953 44.1351 19.6465 44.1351C19.1733 44.132 18.7111 43.9913 18.316 43.7299C17.9209 43.4685 17.6099 43.0977 17.4206 42.6625C17.8307 42.421 18.2231 42.1503 18.5947 41.8525C18.842 41.6463 19.0465 41.3931 19.1963 41.1076C19.3462 40.822 19.4385 40.5096 19.468 40.1883C19.4975 39.8669 19.4637 39.5429 19.3684 39.2346C19.2731 38.9264 19.1183 38.64 18.9127 38.3919C18.7071 38.1437 18.4548 37.9385 18.1702 37.7882C17.8856 37.6378 17.5743 37.5452 17.254 37.5156C16.9338 37.486 16.6108 37.5199 16.3036 37.6155C15.9964 37.7111 15.711 37.8665 15.4637 38.0728C14.5804 38.8189 13.4627 39.2275 12.3082 39.2263C11.0107 39.2263 9.76632 38.7092 8.84885 37.7886C7.93138 36.868 7.41595 35.6195 7.41595 34.3176C7.42765 33.3937 7.69897 32.4919 8.1987 31.7159C8.74767 31.8147 9.30434 31.864 9.86206 31.8632C10.5108 31.8632 11.133 31.6046 11.5917 31.1443C12.0505 30.684 12.3082 30.0597 12.3082 29.4088C12.3082 28.7578 12.0505 28.1336 11.5917 27.6733C11.133 27.213 10.5108 26.9544 9.86206 26.9544C9.28426 26.9577 8.71122 26.8494 8.17424 26.6353C7.29448 26.317 6.5241 25.7522 5.95437 25.0081C5.38463 24.2639 5.03942 23.3715 4.95962 22.4365C4.87983 21.5015 5.06879 20.5632 5.50413 19.7327C5.93947 18.9022 6.60294 18.2142 7.41595 17.7504C7.76354 18.0713 8.14024 18.3589 8.54116 18.6095C9.10557 18.9349 9.77573 19.0221 10.4042 18.8518C11.0327 18.6815 11.568 18.2677 11.8923 17.7013C12.2167 17.135 12.3036 16.4626 12.1339 15.832C11.9641 15.2014 11.5517 14.6643 10.9873 14.3388C10.6429 14.1482 10.3557 13.8685 10.1556 13.5289C9.92944 13.1348 9.82714 12.6814 9.86206 12.228C9.86206 11.5771 10.1198 10.9528 10.5785 10.4925C11.0373 10.0322 11.6594 9.77366 12.3082 9.77366C12.4786 9.7498 12.6515 9.7498 12.8219 9.77366C12.9514 10.168 13.1066 10.5534 13.2866 10.9272C13.4464 11.2085 13.6601 11.4552 13.9154 11.6532C14.1706 11.8513 14.4624 11.9967 14.7739 12.0811C15.0853 12.1655 15.4104 12.1872 15.7303 12.1451C16.0502 12.1029 16.3586 11.9976 16.6378 11.8353C17.1801 11.5079 17.5749 10.9824 17.7391 10.3691C17.9033 9.75577 17.8242 9.10248 17.5184 8.54646C17.3132 8.16997 17.2039 7.74838 17.2004 7.31926C17.2004 6.66832 17.4581 6.04404 17.9169 5.58375C18.3756 5.12346 18.9978 4.86487 19.6465 4.86487C20.2953 4.86487 20.9175 5.12346 21.3762 5.58375C21.8349 6.04404 22.0926 6.66832 22.0926 7.31926V16.0324ZM40.9033 26.6353C40.3663 26.8494 39.7933 26.9577 39.2155 26.9544C38.5667 26.9544 37.9445 27.213 37.4858 27.6733C37.0271 28.1336 36.7693 28.7578 36.7693 29.4088C36.7693 30.0597 37.0271 30.684 37.4858 31.1443C37.9445 31.6046 38.5667 31.8632 39.2155 31.8632C39.7732 31.864 40.3299 31.8147 40.8788 31.7159C41.3786 32.4919 41.6499 33.3937 41.6616 34.3176C41.6616 35.6195 41.1461 36.868 40.2287 37.7886C39.3112 38.7092 38.0668 39.2263 36.7693 39.2263C35.6148 39.2275 34.4971 38.8189 33.6139 38.0728C33.1143 37.6562 32.4703 37.4557 31.8235 37.5156C31.1767 37.5754 30.58 37.8906 30.1648 38.3919C29.7496 38.8931 29.5499 39.5393 29.6095 40.1883C29.6691 40.8373 29.9833 41.4359 30.4828 41.8525C30.8544 42.1503 31.2468 42.421 31.657 42.6625C31.4677 43.0977 31.1566 43.4685 30.7615 43.7299C30.3664 43.9913 29.9042 44.132 29.431 44.1351C28.7822 44.1351 28.1601 43.8765 27.7013 43.4163C27.2426 42.956 26.9849 42.3317 26.9849 41.6807V36.772C26.9903 35.7673 27.3028 34.7886 27.8802 33.9678C28.4576 33.147 29.2721 32.5238 30.2138 32.1822C30.8301 31.9739 31.3387 31.5285 31.6277 30.9439C31.9167 30.3594 31.9624 29.6836 31.7548 29.0652C31.5472 28.4468 31.1033 27.9364 30.5207 27.6465C29.9381 27.3565 29.2646 27.3106 28.6482 27.5189C28.0739 27.7359 27.5176 27.9986 26.9849 28.3043V24.5C26.9903 23.4954 27.3028 22.5166 27.8802 21.6958C28.4576 20.8751 29.2721 20.2519 30.2138 19.9103C30.8301 19.702 31.3387 19.2566 31.6277 18.672C31.9167 18.0874 31.9624 17.4116 31.7548 16.7932C31.5472 16.1748 31.1033 15.6645 30.5207 15.3745C29.9381 15.0845 29.2646 15.0386 28.6482 15.2469C28.0739 15.464 27.5176 15.7266 26.9849 16.0324V7.31926C26.9849 6.66832 27.2426 6.04404 27.7013 5.58375C28.1601 5.12346 28.7822 4.86487 29.431 4.86487C30.0797 4.86487 30.7019 5.12346 31.1607 5.58375C31.6194 6.04404 31.8771 6.66832 31.8771 7.31926C31.8736 7.74838 31.7644 8.16997 31.5591 8.54646C31.3964 8.82513 31.29 9.13328 31.2462 9.45326C31.2024 9.77324 31.222 10.0988 31.3038 10.4111C31.3856 10.7235 31.528 11.0166 31.723 11.2737C31.9179 11.5307 32.1615 11.7466 32.4397 11.909C32.7189 12.0713 33.0273 12.1765 33.3472 12.2187C33.6671 12.2609 33.9922 12.2391 34.3037 12.1547C34.6152 12.0703 34.9069 11.9249 35.1622 11.7269C35.4174 11.5288 35.6311 11.2821 35.7909 11.0009C35.974 10.6031 36.1293 10.193 36.2557 9.77366C36.4261 9.7498 36.5989 9.7498 36.7693 9.77366C37.4181 9.77366 38.0403 10.0322 38.499 10.4925C38.9577 10.9528 39.2155 11.5771 39.2155 12.228C39.2117 12.7092 39.0671 13.1786 38.7996 13.578C38.5996 13.8965 38.3217 14.1584 37.9924 14.3388C37.428 14.6643 37.0156 15.2014 36.8458 15.832C36.6761 16.4626 36.763 17.135 37.0873 17.7013C37.4117 18.2677 37.947 18.6815 38.5755 18.8518C39.204 19.0221 39.8741 18.9349 40.4385 18.6095C40.8777 18.3712 41.2881 18.0829 41.6616 17.7504C42.4774 18.206 43.1462 18.8864 43.589 19.7111C44.0319 20.5358 44.2303 21.4704 44.1609 22.4046C44.0914 23.3388 43.757 24.2336 43.1971 24.9833C42.6372 25.7329 41.8752 26.3062 41.0011 26.6353H40.9033Z" fill="white"/>
</svg>
