<svg width="53" height="53" viewBox="0 0 53 53" fill="none" xmlns="http://www.w3.org/2000/svg">
<path d="M40.1111 12.8889H45.5556C48.5625 12.8889 51 15.3264 51 18.3333V34.6667C51 37.6736 48.5625 40.1111 45.5556 40.1111H40.1111V51L29.2222 40.1111H18.3333C16.8299 40.1111 15.4688 39.5016 14.4835 38.5164M14.4835 38.5164L23.7778 29.2222H34.6667C37.6736 29.2222 40.1111 26.7847 40.1111 23.7778V7.44444C40.1111 4.43756 37.6736 2 34.6667 2H7.44444C4.43756 2 2 4.43756 2 7.44444V23.7778C2 26.7847 4.43756 29.2222 7.44444 29.2222H12.8889V40.1111L14.4835 38.5164Z" stroke="white" stroke-width="4" stroke-linecap="round" stroke-linejoin="round"/>
</svg>
