<svg width="37" height="37" viewBox="0 0 37 37" fill="none" xmlns="http://www.w3.org/2000/svg">
<path d="M26.7778 11.2222H29.8889C31.6072 11.2222 33 12.6151 33 14.3333V23.6667C33 25.3849 31.6072 26.7778 29.8889 26.7778H26.7778V33L20.5556 26.7778H14.3333C13.4742 26.7778 12.6965 26.4295 12.1335 25.8665M12.1335 25.8665L17.4444 20.5556H23.6667C25.3849 20.5556 26.7778 19.1627 26.7778 17.4444V8.11111C26.7778 6.39289 25.3849 5 23.6667 5H8.11111C6.39289 5 5 6.39289 5 8.11111V17.4444C5 19.1627 6.39289 20.5556 8.11111 20.5556H11.2222V26.7778L12.1335 25.8665Z" stroke="black" stroke-width="2" stroke-linecap="round" stroke-linejoin="round"/>
</svg>
