<svg width="46" height="49" viewBox="0 0 46 49" fill="none" xmlns="http://www.w3.org/2000/svg">
<path d="M35.7778 44.2839C35.0367 44.2839 34.3467 44.1424 33.8356 43.9302C32.0211 43.0577 30.7433 41.8551 29.4656 38.3181C28.1622 34.6396 25.7089 32.9182 23.3578 31.244C21.3389 29.8056 19.2433 28.32 17.4289 25.2781C16.0744 23.0144 15.3333 20.5385 15.3333 18.3455C15.3333 11.743 20.9556 6.55534 28.1111 6.55534C35.2667 6.55534 40.8889 11.743 40.8889 18.3455H46C46 9.07844 38.1544 1.83927 28.1111 1.83927C18.0678 1.83927 10.2222 9.07844 10.2222 18.3455C10.2222 21.3166 11.1933 24.5943 12.9567 27.5419C15.2822 31.4326 18.0167 33.3898 20.24 34.9697C22.31 36.4317 23.7922 37.4928 24.61 39.8037C26.1433 44.0953 28.1111 46.5005 31.5867 48.1747C32.89 48.717 34.3211 49 35.7778 49C41.4256 49 46 44.7791 46 39.5679H40.8889C40.8889 42.1617 38.5889 44.2839 35.7778 44.2839ZM11.8578 3.34841L8.22889 0C3.14333 4.69249 0 11.1771 0 18.3455C0 25.514 3.14333 31.9986 8.22889 36.691L11.8322 33.3662C7.69222 29.5226 5.11111 24.217 5.11111 18.3455C5.11111 12.474 7.69222 7.16843 11.8578 3.34841ZM21.7222 18.3455C21.7222 21.5996 24.5844 24.2406 28.1111 24.2406C31.6378 24.2406 34.5 21.5996 34.5 18.3455C34.5 15.0914 31.6378 12.4504 28.1111 12.4504C24.5844 12.4504 21.7222 15.0914 21.7222 18.3455Z" fill="white"/>
</svg>
