<svg width="37" height="37" viewBox="0 0 37 37" fill="none" xmlns="http://www.w3.org/2000/svg">
<path d="M8 14.6666C7.99858 12.8681 8.41299 11.0936 9.21087 9.48173C10.0088 7.86986 11.1685 6.46429 12.5995 5.37482C14.0305 4.28534 15.694 3.54146 17.4601 3.2013C19.2262 2.86113 21.047 2.93388 22.7803 3.41387C24.5136 3.89386 26.1124 4.76809 27.4519 5.96827C28.7914 7.16845 29.8353 8.66207 30.5021 10.3325C31.1688 12.0028 31.4403 13.8048 31.2954 15.5974C31.1505 17.3901 30.5931 19.125 29.6667 20.6666C28.7191 21.9301 27.5968 23.0524 26.3333 24C24.8562 25.3913 23.7162 27.1014 23 29C22.4828 29.9773 21.7559 30.8283 20.8713 31.4918C19.9867 32.1553 18.9664 32.615 17.8833 32.838C16.8003 33.061 15.6813 33.0417 14.6066 32.7816C13.5318 32.5214 12.5279 32.0269 11.6667 31.3333" stroke="black" stroke-width="2" stroke-linecap="round" stroke-linejoin="round"/>
<path d="M14.6666 14.6667C14.6566 13.8302 14.8566 13.0046 15.2484 12.2655C15.6401 11.5263 16.2111 10.8973 16.9089 10.436C17.6068 9.97463 18.4092 9.69577 19.2427 9.62491C20.0763 9.55404 20.9143 9.69345 21.68 10.0304C22.4457 10.3673 23.1146 10.8909 23.6255 11.5533C24.1364 12.2157 24.4729 12.9957 24.6042 13.8219C24.7356 14.6481 24.6575 15.494 24.3773 16.2822C24.097 17.0704 23.6234 17.7756 23 18.3334" stroke="black" stroke-width="2" stroke-linecap="round" stroke-linejoin="round"/>
</svg>
