<svg width="37" height="37" viewBox="0 0 37 37" fill="none" xmlns="http://www.w3.org/2000/svg">
<path d="M17.2633 15.4259C19.9084 15.4259 22.0527 13.3327 22.0527 10.7507C22.0527 8.1687 19.9084 6.07556 17.2633 6.07556C14.6182 6.07556 12.4739 8.1687 12.4739 10.7507C12.4739 13.3327 14.6182 15.4259 17.2633 15.4259Z" stroke="black" stroke-width="2" stroke-linecap="round" stroke-linejoin="round"/>
<path d="M26.8418 7.41162C26.8418 7.41162 28.3813 10.4171 26.8418 14.0904" stroke="black" stroke-width="2" stroke-linecap="round" stroke-linejoin="round"/>
<path d="M31.6316 4.73999C31.6316 4.73999 34.7105 10.1498 31.6316 16.7618" stroke="black" stroke-width="2" stroke-linecap="round" stroke-linejoin="round"/>
<path d="M7 29.3178V30.1193H27.5261V29.3178C27.5261 26.3255 27.5261 24.8293 26.9296 23.6863C26.4048 22.681 25.5674 21.8636 24.5375 21.3513C23.3666 20.769 21.8338 20.769 18.7683 20.769H15.7578C12.6923 20.769 11.1596 20.769 9.98866 21.3513C8.95873 21.8636 8.12136 22.681 7.59659 23.6863C7 24.8293 7 26.3255 7 29.3178Z" stroke="black" stroke-width="2" stroke-linecap="round" stroke-linejoin="round"/>
</svg>
