<svg width="52" height="51" viewBox="0 0 52 51" fill="none" xmlns="http://www.w3.org/2000/svg">
<path d="M21.0906 22.1005C25.7531 22.1005 29.5328 18.411 29.5328 13.8598C29.5328 9.30853 25.7531 5.61902 21.0906 5.61902C16.4281 5.61902 12.6484 9.30853 12.6484 13.8598C12.6484 18.411 16.4281 22.1005 21.0906 22.1005Z" stroke="white" stroke-width="5" stroke-linecap="round" stroke-linejoin="round"/>
<path d="M37.9747 7.97412C37.9747 7.97412 40.6883 13.2717 37.9747 19.7466" stroke="white" stroke-width="5" stroke-linecap="round" stroke-linejoin="round"/>
<path d="M46.4174 3.26465C46.4174 3.26465 51.8445 12.8004 46.4174 24.4551" stroke="white" stroke-width="5" stroke-linecap="round" stroke-linejoin="round"/>
<path d="M3 46.5872V47.9999H39.1808V46.5872C39.1808 41.3127 39.1808 38.6754 38.1293 36.6608C37.2043 34.8887 35.7282 33.4478 33.9128 32.5449C31.8489 31.5184 29.1472 31.5184 23.7437 31.5184H18.4371C13.0337 31.5184 10.3319 31.5184 8.26802 32.5449C6.45259 33.4478 4.97659 34.8887 4.0516 36.6608C3 38.6754 3 41.3127 3 46.5872Z" stroke="white" stroke-width="5" stroke-linecap="round" stroke-linejoin="round"/>
</svg>
